TITLE ""
FILE "DISC2Track33.mp3" MP3
  TRACK 01 AUDIO
    TITLE "DISC2Track33_01"
    INDEX 01 00:00:00
  TRACK 02 AUDIO
    TITLE "DISC2Track33_02"
    INDEX 01 00:03:22
  TRACK 03 AUDIO
    TITLE "DISC2Track33_03"
    INDEX 01 00:03:46
  TRACK 04 AUDIO
    TITLE "DISC2Track33_04"
    INDEX 01 00:08:69
  TRACK 05 AUDIO
    TITLE "DISC2Track33_05"
    INDEX 01 00:13:01
  TRACK 06 AUDIO
    TITLE "DISC2Track33_06"
    INDEX 01 00:17:03
  TRACK 07 AUDIO
    TITLE "DISC2Track33_07"
    INDEX 01 00:17:24
  TRACK 08 AUDIO
    TITLE "DISC2Track33_08"
    INDEX 01 00:22:24
  TRACK 09 AUDIO
    TITLE "DISC2Track33_09"
    INDEX 01 00:26:23
  TRACK 10 AUDIO
    TITLE "DISC2Track33_10"
    INDEX 01 00:30:25
  TRACK 11 AUDIO
    TITLE "DISC2Track33_11"
    INDEX 01 00:30:49
  TRACK 12 AUDIO
    TITLE "DISC2Track33_12"
    INDEX 01 00:36:04
  TRACK 13 AUDIO
    TITLE "DISC2Track33_13"
    INDEX 01 00:39:67
  TRACK 14 AUDIO
    TITLE "DISC2Track33_14"
    INDEX 01 00:43:55
  TRACK 15 AUDIO
    TITLE "DISC2Track33_15"
    INDEX 01 00:44:02
  TRACK 16 AUDIO
    TITLE "DISC2Track33_16"
    INDEX 01 00:49:15
  TRACK 17 AUDIO
    TITLE "DISC2Track33_17"
    INDEX 01 00:53:01
  TRACK 18 AUDIO
    TITLE "DISC2Track33_18"
    INDEX 01 00:56:54
  TRACK 19 AUDIO
    TITLE "DISC2Track33_19"
    INDEX 01 00:57:04
  TRACK 20 AUDIO
    TITLE "DISC2Track33_20"
    INDEX 01 01:02:06
  TRACK 21 AUDIO
    TITLE "DISC2Track33_21"
    INDEX 01 01:06:43
  TRACK 22 AUDIO
    TITLE "DISC2Track33_22"
    INDEX 01 01:10:72
  TRACK 23 AUDIO
    TITLE "DISC2Track33_23"
    INDEX 01 01:11:18
  TRACK 24 AUDIO
    TITLE "DISC2Track33_24"
    INDEX 01 01:16:55
  TRACK 25 AUDIO
    TITLE "DISC2Track33_25"
    INDEX 01 01:21:07
  TRACK 26 AUDIO
    TITLE "DISC2Track33_26"
    INDEX 01 01:25:32
  TRACK 27 AUDIO
    TITLE "DISC2Track33_27"
    INDEX 01 01:25:58
  TRACK 28 AUDIO
    TITLE "DISC2Track33_28"
    INDEX 01 01:30:61
  TRACK 29 AUDIO
    TITLE "DISC2Track33_29"
    INDEX 01 01:34:62
  TRACK 30 AUDIO
    TITLE "DISC2Track33_30"
    INDEX 01 01:38:50
  TRACK 31 AUDIO
    TITLE "DISC2Track33_31"
    INDEX 01 01:39:05
  TRACK 32 AUDIO
    TITLE "DISC2Track33_32"
    INDEX 01 01:43:03
  TRACK 33 AUDIO
    TITLE "DISC2Track33_33"
    INDEX 01 01:47:38
  TRACK 34 AUDIO
    TITLE "DISC2Track33_34"
    INDEX 01 01:51:63
  TRACK 35 AUDIO
    TITLE "DISC2Track33_35"
    INDEX 01 01:52:13
  TRACK 36 AUDIO
    TITLE "DISC2Track33_36"
    INDEX 01 01:55:17
  TRACK 37 AUDIO
    TITLE "DISC2Track33_37"
    INDEX 01 01:58:30
  TRACK 38 AUDIO
    TITLE "DISC2Track33_38"
    INDEX 01 02:01:32
  TRACK 39 AUDIO
    TITLE "DISC2Track33_39"
    INDEX 01 02:01:53
  TRACK 40 AUDIO
    TITLE "DISC2Track33_40"
    INDEX 01 02:04:20
  TRACK 41 AUDIO
    TITLE "DISC2Track33_41"
    INDEX 01 02:06:74
  TRACK 42 AUDIO
    TITLE "DISC2Track33_42"
    INDEX 01 02:09:43
